<mxfile host="app.diagrams.net" agent="Mozilla/5.0 (Linux; Android 10; K) AppleWebKit/537.36 (KHTML, like Gecko) Chrome/140.0.0.0 Mobile Safari/537.36" version="28.2.5" pages="2">
  <diagram name="Block" id="fK-WjotenXli3Jt96cc2">
    <mxGraphModel dx="698" dy="1154" grid="1" gridSize="10" guides="1" tooltips="1" connect="1" arrows="1" fold="1" page="1" pageScale="1" pageWidth="850" pageHeight="1100" math="0" shadow="0">
      <root>
        <mxCell id="0" />
        <mxCell id="1" parent="0" />
        <mxCell id="vHVtJYY_Pv0LcXe_QVc_-1" value="Printer Block&lt;div&gt;Layout&lt;/div&gt;" style="whiteSpace=wrap;html=1;shadow=1;fontSize=20;strokeWidth=2;dashed=1;rounded=1;labelBackgroundColor=none;" parent="1" vertex="1">
          <mxGeometry x="407" y="40" width="150" height="60" as="geometry" />
        </mxCell>
        <mxCell id="vHVtJYY_Pv0LcXe_QVc_-2" style="edgeStyle=elbowEdgeStyle;rounded=1;html=1;startArrow=none;startFill=0;jettySize=auto;orthogonalLoop=1;fontSize=18;elbow=vertical;labelBackgroundColor=none;fontColor=default;strokeWidth=2;" parent="1" source="vHVtJYY_Pv0LcXe_QVc_-10" target="vHVtJYY_Pv0LcXe_QVc_-11" edge="1">
          <mxGeometry relative="1" as="geometry" />
        </mxCell>
        <mxCell id="vHVtJYY_Pv0LcXe_QVc_-3" style="edgeStyle=elbowEdgeStyle;rounded=1;html=1;startArrow=none;startFill=0;jettySize=auto;orthogonalLoop=1;fontSize=18;elbow=vertical;labelBackgroundColor=none;fontColor=default;strokeWidth=2;" parent="1" source="vHVtJYY_Pv0LcXe_QVc_-10" target="vHVtJYY_Pv0LcXe_QVc_-12" edge="1">
          <mxGeometry relative="1" as="geometry" />
        </mxCell>
        <mxCell id="vHVtJYY_Pv0LcXe_QVc_-4" style="edgeStyle=elbowEdgeStyle;rounded=1;html=1;startArrow=classic;startFill=1;jettySize=auto;orthogonalLoop=1;fontSize=18;elbow=vertical;endArrow=none;endFill=0;labelBackgroundColor=none;fontColor=default;strokeWidth=2;" parent="1" source="vHVtJYY_Pv0LcXe_QVc_-10" target="vHVtJYY_Pv0LcXe_QVc_-13" edge="1">
          <mxGeometry relative="1" as="geometry" />
        </mxCell>
        <mxCell id="vHVtJYY_Pv0LcXe_QVc_-5" style="edgeStyle=elbowEdgeStyle;rounded=1;html=1;startArrow=none;startFill=0;jettySize=auto;orthogonalLoop=1;fontSize=18;elbow=vertical;labelBackgroundColor=none;fontColor=default;strokeWidth=2;" parent="1" source="vHVtJYY_Pv0LcXe_QVc_-10" target="vHVtJYY_Pv0LcXe_QVc_-14" edge="1">
          <mxGeometry relative="1" as="geometry" />
        </mxCell>
        <mxCell id="vHVtJYY_Pv0LcXe_QVc_-6" style="edgeStyle=orthogonalEdgeStyle;rounded=1;orthogonalLoop=1;jettySize=auto;html=1;exitX=0;exitY=0.098;exitDx=0;exitDy=0;entryX=1;entryY=0.5;entryDx=0;entryDy=0;exitPerimeter=0;labelBackgroundColor=none;fontColor=default;strokeWidth=2;" parent="1" source="vHVtJYY_Pv0LcXe_QVc_-10" target="vHVtJYY_Pv0LcXe_QVc_-16" edge="1">
          <mxGeometry relative="1" as="geometry" />
        </mxCell>
        <mxCell id="vHVtJYY_Pv0LcXe_QVc_-7" style="edgeStyle=orthogonalEdgeStyle;rounded=1;orthogonalLoop=1;jettySize=auto;html=1;exitX=-0.005;exitY=0.467;exitDx=0;exitDy=0;entryX=1;entryY=0.5;entryDx=0;entryDy=0;exitPerimeter=0;labelBackgroundColor=none;fontColor=default;strokeWidth=2;" parent="1" source="vHVtJYY_Pv0LcXe_QVc_-10" target="vHVtJYY_Pv0LcXe_QVc_-25" edge="1">
          <mxGeometry relative="1" as="geometry" />
        </mxCell>
        <mxCell id="vHVtJYY_Pv0LcXe_QVc_-8" style="edgeStyle=orthogonalEdgeStyle;rounded=1;orthogonalLoop=1;jettySize=auto;html=1;entryX=1;entryY=0.5;entryDx=0;entryDy=0;exitX=-0.004;exitY=0.719;exitDx=0;exitDy=0;exitPerimeter=0;labelBackgroundColor=none;fontColor=default;strokeWidth=2;" parent="1" source="vHVtJYY_Pv0LcXe_QVc_-10" target="vHVtJYY_Pv0LcXe_QVc_-27" edge="1">
          <mxGeometry relative="1" as="geometry" />
        </mxCell>
        <mxCell id="vHVtJYY_Pv0LcXe_QVc_-9" style="edgeStyle=orthogonalEdgeStyle;rounded=1;orthogonalLoop=1;jettySize=auto;html=1;entryX=1;entryY=0.5;entryDx=0;entryDy=0;exitX=-0.007;exitY=0.861;exitDx=0;exitDy=0;exitPerimeter=0;labelBackgroundColor=none;fontColor=default;strokeWidth=2;" parent="1" source="vHVtJYY_Pv0LcXe_QVc_-10" target="vHVtJYY_Pv0LcXe_QVc_-28" edge="1">
          <mxGeometry relative="1" as="geometry" />
        </mxCell>
        <mxCell id="vHVtJYY_Pv0LcXe_QVc_-10" value="BTT&lt;div&gt;PICO&lt;/div&gt;" style="whiteSpace=wrap;html=1;shadow=1;fontSize=18;rounded=1;labelBackgroundColor=none;strokeWidth=2;" parent="1" vertex="1">
          <mxGeometry x="397" y="150" width="170" height="280" as="geometry" />
        </mxCell>
        <mxCell id="vHVtJYY_Pv0LcXe_QVc_-11" value="FAN 1" style="whiteSpace=wrap;html=1;shadow=1;fontSize=18;rotation=0;rounded=1;labelBackgroundColor=none;strokeWidth=2;" parent="1" vertex="1">
          <mxGeometry x="647" y="140" width="113" height="30" as="geometry" />
        </mxCell>
        <mxCell id="vHVtJYY_Pv0LcXe_QVc_-12" value="FAN 2" style="whiteSpace=wrap;html=1;shadow=1;fontSize=18;rounded=1;labelBackgroundColor=none;strokeWidth=2;" parent="1" vertex="1">
          <mxGeometry x="647" y="183" width="113" height="30" as="geometry" />
        </mxCell>
        <mxCell id="vHVtJYY_Pv0LcXe_QVc_-13" value="BED THERM" style="whiteSpace=wrap;html=1;shadow=1;fontSize=18;rotation=0;rounded=1;labelBackgroundColor=none;strokeWidth=2;" parent="1" vertex="1">
          <mxGeometry x="207" y="226" width="115" height="30" as="geometry" />
        </mxCell>
        <mxCell id="vHVtJYY_Pv0LcXe_QVc_-14" value="LED STRIP" style="whiteSpace=wrap;html=1;shadow=1;fontSize=18;rotation=0;rounded=1;labelBackgroundColor=none;strokeWidth=2;" parent="1" vertex="1">
          <mxGeometry x="647" y="266" width="113" height="30" as="geometry" />
        </mxCell>
        <mxCell id="vHVtJYY_Pv0LcXe_QVc_-15" style="edgeStyle=orthogonalEdgeStyle;rounded=1;orthogonalLoop=1;jettySize=auto;html=1;labelBackgroundColor=none;fontColor=default;strokeWidth=2;" parent="1" source="vHVtJYY_Pv0LcXe_QVc_-16" target="vHVtJYY_Pv0LcXe_QVc_-17" edge="1">
          <mxGeometry relative="1" as="geometry" />
        </mxCell>
        <mxCell id="vHVtJYY_Pv0LcXe_QVc_-16" value="24v DC&lt;div&gt;240v AC&lt;div&gt;SSR&amp;nbsp;&lt;/div&gt;&lt;/div&gt;" style="whiteSpace=wrap;html=1;shadow=1;fontSize=18;rotation=0;rounded=1;labelBackgroundColor=none;strokeWidth=2;" parent="1" vertex="1">
          <mxGeometry x="207" y="140" width="115" height="75" as="geometry" />
        </mxCell>
        <mxCell id="vHVtJYY_Pv0LcXe_QVc_-17" value="&lt;div&gt;750W&lt;/div&gt;&lt;div&gt;HEATER&lt;/div&gt;&lt;div&gt;BED&lt;/div&gt;" style="whiteSpace=wrap;html=1;shadow=1;fontSize=18;rotation=0;rounded=1;labelBackgroundColor=none;strokeWidth=2;" parent="1" vertex="1">
          <mxGeometry x="40" y="140" width="120" height="75" as="geometry" />
        </mxCell>
        <mxCell id="vHVtJYY_Pv0LcXe_QVc_-18" value="EBB42" style="whiteSpace=wrap;html=1;shadow=1;fontSize=18;rounded=1;labelBackgroundColor=none;strokeWidth=2;" parent="1" vertex="1">
          <mxGeometry x="400.5" y="620" width="170" height="200" as="geometry" />
        </mxCell>
        <mxCell id="vHVtJYY_Pv0LcXe_QVc_-19" style="edgeStyle=elbowEdgeStyle;rounded=1;html=1;startArrow=none;startFill=0;jettySize=auto;orthogonalLoop=1;fontSize=18;labelBackgroundColor=none;fontColor=default;strokeWidth=2;" parent="1" edge="1">
          <mxGeometry relative="1" as="geometry">
            <mxPoint x="487" y="470" as="sourcePoint" />
            <mxPoint x="487" y="430" as="targetPoint" />
            <Array as="points">
              <mxPoint x="487" y="450" />
              <mxPoint x="487" y="450" />
            </Array>
          </mxGeometry>
        </mxCell>
        <mxCell id="vHVtJYY_Pv0LcXe_QVc_-20" style="edgeStyle=elbowEdgeStyle;rounded=1;html=1;startArrow=none;startFill=0;jettySize=auto;orthogonalLoop=1;fontSize=18;labelBackgroundColor=none;fontColor=default;strokeWidth=2;" parent="1" edge="1">
          <mxGeometry relative="1" as="geometry">
            <mxPoint x="480" y="430" as="sourcePoint" />
            <mxPoint x="480" y="470" as="targetPoint" />
            <Array as="points">
              <mxPoint x="480" y="450" />
              <mxPoint x="510" y="460" />
            </Array>
          </mxGeometry>
        </mxCell>
        <mxCell id="vHVtJYY_Pv0LcXe_QVc_-21" value="FAN 3" style="whiteSpace=wrap;html=1;shadow=1;fontSize=18;rounded=1;labelBackgroundColor=none;strokeWidth=2;" parent="1" vertex="1">
          <mxGeometry x="647" y="226" width="113" height="30" as="geometry" />
        </mxCell>
        <mxCell id="vHVtJYY_Pv0LcXe_QVc_-22" style="edgeStyle=elbowEdgeStyle;rounded=1;html=1;startArrow=none;startFill=0;jettySize=auto;orthogonalLoop=1;fontSize=18;elbow=vertical;labelBackgroundColor=none;fontColor=default;strokeWidth=2;" parent="1" edge="1">
          <mxGeometry relative="1" as="geometry">
            <mxPoint x="567" y="240.90999999999997" as="sourcePoint" />
            <mxPoint x="647" y="240.90999999999997" as="targetPoint" />
          </mxGeometry>
        </mxCell>
        <mxCell id="vHVtJYY_Pv0LcXe_QVc_-23" value="Z END STOP" style="whiteSpace=wrap;html=1;shadow=1;fontSize=18;rotation=0;rounded=1;labelBackgroundColor=none;strokeWidth=2;" parent="1" vertex="1">
          <mxGeometry x="647" y="306" width="113" height="30" as="geometry" />
        </mxCell>
        <mxCell id="vHVtJYY_Pv0LcXe_QVc_-24" style="edgeStyle=orthogonalEdgeStyle;rounded=1;orthogonalLoop=1;jettySize=auto;html=1;entryX=1.018;entryY=0.611;entryDx=0;entryDy=0;entryPerimeter=0;labelBackgroundColor=none;fontColor=default;strokeWidth=2;" parent="1" source="vHVtJYY_Pv0LcXe_QVc_-23" target="vHVtJYY_Pv0LcXe_QVc_-10" edge="1">
          <mxGeometry relative="1" as="geometry">
            <Array as="points">
              <mxPoint x="620" y="321" />
              <mxPoint x="620" y="321" />
            </Array>
          </mxGeometry>
        </mxCell>
        <mxCell id="vHVtJYY_Pv0LcXe_QVc_-25" value="X STEPPER" style="whiteSpace=wrap;html=1;shadow=1;fontSize=18;rotation=0;rounded=1;labelBackgroundColor=none;strokeWidth=2;" parent="1" vertex="1">
          <mxGeometry x="207" y="266" width="115" height="30" as="geometry" />
        </mxCell>
        <mxCell id="vHVtJYY_Pv0LcXe_QVc_-26" value="Y STEPPER" style="whiteSpace=wrap;html=1;shadow=1;fontSize=18;rotation=0;rounded=1;labelBackgroundColor=none;strokeWidth=2;" parent="1" vertex="1">
          <mxGeometry x="207" y="301" width="113" height="30" as="geometry" />
        </mxCell>
        <mxCell id="vHVtJYY_Pv0LcXe_QVc_-27" value="Z STEPPER" style="whiteSpace=wrap;html=1;shadow=1;fontSize=18;rotation=0;rounded=1;labelBackgroundColor=none;strokeWidth=2;" parent="1" vertex="1">
          <mxGeometry x="207" y="336" width="113" height="30" as="geometry" />
        </mxCell>
        <mxCell id="vHVtJYY_Pv0LcXe_QVc_-28" value="Z2 STEPPER" style="whiteSpace=wrap;html=1;shadow=1;fontSize=18;rotation=0;rounded=1;labelBackgroundColor=none;strokeWidth=2;" parent="1" vertex="1">
          <mxGeometry x="207" y="376" width="113" height="30" as="geometry" />
        </mxCell>
        <mxCell id="vHVtJYY_Pv0LcXe_QVc_-29" style="edgeStyle=orthogonalEdgeStyle;rounded=1;orthogonalLoop=1;jettySize=auto;html=1;entryX=0.977;entryY=0.523;entryDx=0;entryDy=0;entryPerimeter=0;exitX=-0.009;exitY=0.595;exitDx=0;exitDy=0;exitPerimeter=0;labelBackgroundColor=none;fontColor=default;strokeWidth=2;" parent="1" source="vHVtJYY_Pv0LcXe_QVc_-10" target="vHVtJYY_Pv0LcXe_QVc_-26" edge="1">
          <mxGeometry relative="1" as="geometry" />
        </mxCell>
        <mxCell id="vHVtJYY_Pv0LcXe_QVc_-30" value="RPI&lt;div&gt;3B+&lt;/div&gt;" style="whiteSpace=wrap;html=1;shadow=1;fontSize=18;rounded=1;labelBackgroundColor=none;strokeWidth=2;" parent="1" vertex="1">
          <mxGeometry x="412" y="470" width="145" height="106" as="geometry" />
        </mxCell>
        <mxCell id="vHVtJYY_Pv0LcXe_QVc_-31" value="UART" style="text;html=1;align=center;verticalAlign=middle;whiteSpace=wrap;rounded=1;labelBackgroundColor=none;strokeWidth=2;" parent="1" vertex="1">
          <mxGeometry x="490.5" y="436" width="60" height="30" as="geometry" />
        </mxCell>
        <mxCell id="vHVtJYY_Pv0LcXe_QVc_-32" value="CANBUS" style="text;html=1;align=center;verticalAlign=middle;whiteSpace=wrap;rounded=1;labelBackgroundColor=none;strokeWidth=2;" parent="1" vertex="1">
          <mxGeometry x="490.5" y="590" width="60" height="30" as="geometry" />
        </mxCell>
        <mxCell id="vHVtJYY_Pv0LcXe_QVc_-33" value="E STEPPER" style="whiteSpace=wrap;html=1;shadow=1;fontSize=18;rotation=0;rounded=1;labelBackgroundColor=none;strokeWidth=2;" parent="1" vertex="1">
          <mxGeometry x="207" y="624" width="113" height="30" as="geometry" />
        </mxCell>
        <mxCell id="vHVtJYY_Pv0LcXe_QVc_-34" value="FAN 1" style="whiteSpace=wrap;html=1;shadow=1;fontSize=18;rotation=0;rounded=1;labelBackgroundColor=none;strokeWidth=2;" parent="1" vertex="1">
          <mxGeometry x="647.5" y="624" width="113" height="30" as="geometry" />
        </mxCell>
        <mxCell id="vHVtJYY_Pv0LcXe_QVc_-35" value="FAN 2" style="whiteSpace=wrap;html=1;shadow=1;fontSize=18;rounded=1;labelBackgroundColor=none;strokeWidth=2;" parent="1" vertex="1">
          <mxGeometry x="647.5" y="669" width="113" height="30" as="geometry" />
        </mxCell>
        <mxCell id="vHVtJYY_Pv0LcXe_QVc_-36" value="LED STRIP" style="whiteSpace=wrap;html=1;shadow=1;fontSize=18;rotation=0;rounded=1;labelBackgroundColor=none;strokeWidth=2;" parent="1" vertex="1">
          <mxGeometry x="647.5" y="714" width="113" height="30" as="geometry" />
        </mxCell>
        <mxCell id="vHVtJYY_Pv0LcXe_QVc_-37" value="HE THERM" style="whiteSpace=wrap;html=1;shadow=1;fontSize=18;rotation=0;rounded=1;labelBackgroundColor=none;strokeWidth=2;" parent="1" vertex="1">
          <mxGeometry x="207" y="664" width="115" height="30" as="geometry" />
        </mxCell>
        <mxCell id="vHVtJYY_Pv0LcXe_QVc_-38" value="HE HEATER" style="whiteSpace=wrap;html=1;shadow=1;fontSize=18;rotation=0;rounded=1;labelBackgroundColor=none;strokeWidth=2;" parent="1" vertex="1">
          <mxGeometry x="207" y="704" width="115" height="30" as="geometry" />
        </mxCell>
        <mxCell id="vHVtJYY_Pv0LcXe_QVc_-39" style="edgeStyle=orthogonalEdgeStyle;rounded=1;orthogonalLoop=1;jettySize=auto;html=1;entryX=1;entryY=0.5;entryDx=0;entryDy=0;exitX=-0.007;exitY=0.861;exitDx=0;exitDy=0;exitPerimeter=0;labelBackgroundColor=none;fontColor=default;strokeWidth=2;" parent="1" edge="1">
          <mxGeometry relative="1" as="geometry">
            <mxPoint x="398.5" y="638.77" as="sourcePoint" />
            <mxPoint x="322.5" y="638.77" as="targetPoint" />
          </mxGeometry>
        </mxCell>
        <mxCell id="vHVtJYY_Pv0LcXe_QVc_-40" style="edgeStyle=orthogonalEdgeStyle;rounded=1;orthogonalLoop=1;jettySize=auto;html=1;entryX=1;entryY=0.5;entryDx=0;entryDy=0;exitX=-0.007;exitY=0.861;exitDx=0;exitDy=0;exitPerimeter=0;labelBackgroundColor=none;fontColor=default;strokeWidth=2;startArrow=classic;startFill=1;endArrow=none;endFill=0;" parent="1" edge="1">
          <mxGeometry relative="1" as="geometry">
            <mxPoint x="398.5" y="683.55" as="sourcePoint" />
            <mxPoint x="322.5" y="683.55" as="targetPoint" />
          </mxGeometry>
        </mxCell>
        <mxCell id="vHVtJYY_Pv0LcXe_QVc_-41" style="edgeStyle=orthogonalEdgeStyle;rounded=1;orthogonalLoop=1;jettySize=auto;html=1;entryX=1;entryY=0.5;entryDx=0;entryDy=0;exitX=0;exitY=0.5;exitDx=0;exitDy=0;labelBackgroundColor=none;fontColor=default;strokeWidth=2;" parent="1" source="vHVtJYY_Pv0LcXe_QVc_-18" target="vHVtJYY_Pv0LcXe_QVc_-38" edge="1">
          <mxGeometry relative="1" as="geometry">
            <mxPoint x="398.5" y="728.55" as="sourcePoint" />
            <mxPoint x="322.5" y="728.55" as="targetPoint" />
            <Array as="points">
              <mxPoint x="401" y="719" />
            </Array>
          </mxGeometry>
        </mxCell>
        <mxCell id="vHVtJYY_Pv0LcXe_QVc_-42" value="EDDY" style="whiteSpace=wrap;html=1;shadow=1;fontSize=18;rounded=1;labelBackgroundColor=none;strokeWidth=2;" parent="1" vertex="1">
          <mxGeometry x="402.5" y="860" width="170" height="90" as="geometry" />
        </mxCell>
        <mxCell id="vHVtJYY_Pv0LcXe_QVc_-43" value="CANBUS" style="text;html=1;align=center;verticalAlign=middle;whiteSpace=wrap;rounded=1;labelBackgroundColor=none;strokeWidth=2;" parent="1" vertex="1">
          <mxGeometry x="490.5" y="830" width="60" height="30" as="geometry" />
        </mxCell>
        <mxCell id="vHVtJYY_Pv0LcXe_QVc_-44" style="edgeStyle=elbowEdgeStyle;rounded=1;html=1;startArrow=none;startFill=0;jettySize=auto;orthogonalLoop=1;fontSize=18;labelBackgroundColor=none;fontColor=default;strokeWidth=2;" parent="1" edge="1">
          <mxGeometry relative="1" as="geometry">
            <mxPoint x="480.5" y="820" as="sourcePoint" />
            <mxPoint x="480.5" y="860" as="targetPoint" />
            <Array as="points">
              <mxPoint x="480.5" y="840" />
              <mxPoint x="510.5" y="850" />
            </Array>
          </mxGeometry>
        </mxCell>
        <mxCell id="vHVtJYY_Pv0LcXe_QVc_-45" style="edgeStyle=elbowEdgeStyle;rounded=1;html=1;startArrow=classic;startFill=1;jettySize=auto;orthogonalLoop=1;fontSize=18;endArrow=none;endFill=0;labelBackgroundColor=none;fontColor=default;strokeWidth=2;" parent="1" edge="1">
          <mxGeometry relative="1" as="geometry">
            <mxPoint x="487.5" y="820" as="sourcePoint" />
            <mxPoint x="487.5" y="860" as="targetPoint" />
            <Array as="points">
              <mxPoint x="487.5" y="840" />
              <mxPoint x="517.5" y="850" />
            </Array>
          </mxGeometry>
        </mxCell>
        <mxCell id="vHVtJYY_Pv0LcXe_QVc_-46" style="edgeStyle=orthogonalEdgeStyle;rounded=1;orthogonalLoop=1;jettySize=auto;html=1;entryX=1;entryY=0.5;entryDx=0;entryDy=0;exitX=-0.007;exitY=0.861;exitDx=0;exitDy=0;exitPerimeter=0;startArrow=classic;startFill=1;endArrow=none;endFill=0;labelBackgroundColor=none;fontColor=default;strokeWidth=2;" parent="1" edge="1">
          <mxGeometry relative="1" as="geometry">
            <mxPoint x="646.5" y="638.62" as="sourcePoint" />
            <mxPoint x="570.5" y="638.62" as="targetPoint" />
          </mxGeometry>
        </mxCell>
        <mxCell id="vHVtJYY_Pv0LcXe_QVc_-47" style="edgeStyle=orthogonalEdgeStyle;rounded=1;orthogonalLoop=1;jettySize=auto;html=1;entryX=1;entryY=0.5;entryDx=0;entryDy=0;exitX=-0.007;exitY=0.861;exitDx=0;exitDy=0;exitPerimeter=0;startArrow=classic;startFill=1;endArrow=none;endFill=0;labelBackgroundColor=none;fontColor=default;strokeWidth=2;" parent="1" edge="1">
          <mxGeometry relative="1" as="geometry">
            <mxPoint x="646.5" y="683.62" as="sourcePoint" />
            <mxPoint x="570.5" y="683.62" as="targetPoint" />
          </mxGeometry>
        </mxCell>
        <mxCell id="vHVtJYY_Pv0LcXe_QVc_-48" style="edgeStyle=orthogonalEdgeStyle;rounded=1;orthogonalLoop=1;jettySize=auto;html=1;entryX=1;entryY=0.5;entryDx=0;entryDy=0;exitX=-0.007;exitY=0.861;exitDx=0;exitDy=0;exitPerimeter=0;startArrow=classic;startFill=1;endArrow=none;endFill=0;labelBackgroundColor=none;fontColor=default;strokeWidth=2;" parent="1" edge="1">
          <mxGeometry relative="1" as="geometry">
            <mxPoint x="648.5" y="728.62" as="sourcePoint" />
            <mxPoint x="572.5" y="728.62" as="targetPoint" />
          </mxGeometry>
        </mxCell>
        <mxCell id="vHVtJYY_Pv0LcXe_QVc_-49" style="edgeStyle=elbowEdgeStyle;rounded=1;html=1;startArrow=none;startFill=0;jettySize=auto;orthogonalLoop=1;fontSize=18;labelBackgroundColor=none;fontColor=default;strokeWidth=2;" parent="1" edge="1">
          <mxGeometry relative="1" as="geometry">
            <mxPoint x="479.49" y="620" as="sourcePoint" />
            <mxPoint x="479.49" y="580" as="targetPoint" />
            <Array as="points">
              <mxPoint x="479.49" y="600" />
              <mxPoint x="479.49" y="600" />
            </Array>
          </mxGeometry>
        </mxCell>
        <mxCell id="vHVtJYY_Pv0LcXe_QVc_-50" style="edgeStyle=elbowEdgeStyle;rounded=1;html=1;startArrow=none;startFill=0;jettySize=auto;orthogonalLoop=1;fontSize=18;labelBackgroundColor=none;fontColor=default;strokeWidth=2;" parent="1" edge="1">
          <mxGeometry relative="1" as="geometry">
            <mxPoint x="472.49" y="580" as="sourcePoint" />
            <mxPoint x="472.49" y="620" as="targetPoint" />
            <Array as="points">
              <mxPoint x="472.49" y="600" />
              <mxPoint x="502.49" y="610" />
            </Array>
          </mxGeometry>
        </mxCell>
      </root>
    </mxGraphModel>
  </diagram>
  <diagram name="Power" id="SvmGMVHbU5tJuUT8hBx4">
    <mxGraphModel dx="411" dy="679" grid="1" gridSize="10" guides="1" tooltips="1" connect="1" arrows="1" fold="1" page="1" pageScale="1" pageWidth="850" pageHeight="1100" math="0" shadow="0">
      <root>
        <mxCell id="SGt4mR0q2XHbS2SQR2bL-0" />
        <mxCell id="SGt4mR0q2XHbS2SQR2bL-1" parent="SGt4mR0q2XHbS2SQR2bL-0" />
        <mxCell id="EGWSOkY1vcWyFsizza1H-1" value="5V&amp;nbsp;" style="text;strokeColor=none;align=center;fillColor=none;html=1;verticalAlign=middle;whiteSpace=wrap;rounded=0;fontSize=16;" vertex="1" parent="SGt4mR0q2XHbS2SQR2bL-1">
          <mxGeometry x="330" y="740" width="60" height="30" as="geometry" />
        </mxCell>
        <mxCell id="SGt4mR0q2XHbS2SQR2bL-2" value="Printer Power&lt;div&gt;Diagram&lt;/div&gt;" style="whiteSpace=wrap;html=1;shadow=1;fontSize=20;strokeWidth=2;dashed=1;rounded=1;labelBackgroundColor=none;" vertex="1" parent="SGt4mR0q2XHbS2SQR2bL-1">
          <mxGeometry x="407" y="40" width="150" height="60" as="geometry" />
        </mxCell>
        <mxCell id="SGt4mR0q2XHbS2SQR2bL-11" value="BTT&lt;div&gt;PICO&lt;/div&gt;" style="whiteSpace=wrap;html=1;shadow=1;fontSize=18;rounded=1;labelBackgroundColor=none;strokeWidth=2;" vertex="1" parent="SGt4mR0q2XHbS2SQR2bL-1">
          <mxGeometry x="557" y="160" width="170" height="280" as="geometry" />
        </mxCell>
        <mxCell id="hpbuT1dW0PDJMgFhYp0D-12" value="" style="edgeStyle=none;curved=1;rounded=0;orthogonalLoop=1;jettySize=auto;html=1;fontSize=12;startSize=8;endSize=8;strokeColor=light-dark(#000000,#FF0000);strokeWidth=3;endArrow=none;endFill=0;" edge="1" parent="SGt4mR0q2XHbS2SQR2bL-1" source="SGt4mR0q2XHbS2SQR2bL-19" target="SGt4mR0q2XHbS2SQR2bL-43">
          <mxGeometry relative="1" as="geometry">
            <Array as="points">
              <mxPoint x="642" y="750" />
              <mxPoint x="642" y="770" />
            </Array>
          </mxGeometry>
        </mxCell>
        <mxCell id="SGt4mR0q2XHbS2SQR2bL-19" value="EBB42" style="whiteSpace=wrap;html=1;shadow=1;fontSize=18;rounded=1;labelBackgroundColor=none;strokeWidth=2;" vertex="1" parent="SGt4mR0q2XHbS2SQR2bL-1">
          <mxGeometry x="557" y="520" width="170" height="200" as="geometry" />
        </mxCell>
        <mxCell id="SGt4mR0q2XHbS2SQR2bL-31" value="RPI&lt;div&gt;3B+&lt;/div&gt;" style="whiteSpace=wrap;html=1;shadow=1;fontSize=18;rounded=1;labelBackgroundColor=none;strokeWidth=2;" vertex="1" parent="SGt4mR0q2XHbS2SQR2bL-1">
          <mxGeometry x="237" y="800" width="170" height="106" as="geometry" />
        </mxCell>
        <mxCell id="SGt4mR0q2XHbS2SQR2bL-43" value="EDDY" style="whiteSpace=wrap;html=1;shadow=1;fontSize=18;rounded=1;labelBackgroundColor=none;strokeWidth=2;" vertex="1" parent="SGt4mR0q2XHbS2SQR2bL-1">
          <mxGeometry x="557" y="800" width="170" height="90" as="geometry" />
        </mxCell>
        <mxCell id="hpbuT1dW0PDJMgFhYp0D-4" style="edgeStyle=orthogonalEdgeStyle;rounded=0;orthogonalLoop=1;jettySize=auto;html=1;fontSize=12;startSize=8;endSize=8;strokeWidth=3;fillColor=#e51400;strokeColor=light-dark(#000000,#FF0000);endArrow=none;endFill=0;entryX=0;entryY=0.5;entryDx=0;entryDy=0;" edge="1" parent="SGt4mR0q2XHbS2SQR2bL-1" source="hpbuT1dW0PDJMgFhYp0D-0" target="SGt4mR0q2XHbS2SQR2bL-19">
          <mxGeometry relative="1" as="geometry">
            <mxPoint x="530" y="610" as="targetPoint" />
            <Array as="points">
              <mxPoint x="480" y="300" />
              <mxPoint x="480" y="620" />
            </Array>
          </mxGeometry>
        </mxCell>
        <mxCell id="hpbuT1dW0PDJMgFhYp0D-0" value="24V&lt;div&gt;PSU&lt;/div&gt;" style="whiteSpace=wrap;html=1;shadow=1;fontSize=18;rounded=1;labelBackgroundColor=none;strokeWidth=2;" vertex="1" parent="SGt4mR0q2XHbS2SQR2bL-1">
          <mxGeometry x="237" y="160" width="170" height="280" as="geometry" />
        </mxCell>
        <mxCell id="hpbuT1dW0PDJMgFhYp0D-13" value="" style="edgeStyle=none;curved=1;rounded=0;orthogonalLoop=1;jettySize=auto;html=1;fontSize=12;startSize=8;endSize=8;endArrow=none;endFill=0;strokeWidth=3;strokeColor=light-dark(#000000,#FF0000);" edge="1" parent="SGt4mR0q2XHbS2SQR2bL-1" source="hpbuT1dW0PDJMgFhYp0D-1" target="SGt4mR0q2XHbS2SQR2bL-31">
          <mxGeometry relative="1" as="geometry" />
        </mxCell>
        <mxCell id="hpbuT1dW0PDJMgFhYp0D-1" value="5V Buck&lt;div&gt;Converter&amp;nbsp;&lt;/div&gt;" style="whiteSpace=wrap;html=1;shadow=1;fontSize=18;rounded=1;labelBackgroundColor=none;strokeWidth=2;" vertex="1" parent="SGt4mR0q2XHbS2SQR2bL-1">
          <mxGeometry x="237" y="520" width="170" height="196" as="geometry" />
        </mxCell>
        <mxCell id="hpbuT1dW0PDJMgFhYp0D-9" style="edgeStyle=orthogonalEdgeStyle;rounded=0;orthogonalLoop=1;jettySize=auto;html=1;fontSize=12;startSize=8;endSize=8;strokeWidth=3;fillColor=#e51400;strokeColor=light-dark(#000000,#FF0000);endArrow=none;endFill=0;exitX=0;exitY=0.5;exitDx=0;exitDy=0;" edge="1" parent="SGt4mR0q2XHbS2SQR2bL-1" source="SGt4mR0q2XHbS2SQR2bL-11">
          <mxGeometry relative="1" as="geometry">
            <mxPoint x="410" y="300" as="targetPoint" />
            <mxPoint x="540" y="300" as="sourcePoint" />
            <Array as="points">
              <mxPoint x="500" y="300" />
              <mxPoint x="500" y="300" />
            </Array>
          </mxGeometry>
        </mxCell>
        <mxCell id="hpbuT1dW0PDJMgFhYp0D-11" style="edgeStyle=orthogonalEdgeStyle;rounded=0;orthogonalLoop=1;jettySize=auto;html=1;fontSize=12;startSize=8;endSize=8;strokeWidth=3;fillColor=#e51400;strokeColor=light-dark(#050000,#FF0000);endArrow=none;endFill=0;entryX=1;entryY=0.5;entryDx=0;entryDy=0;" edge="1" parent="SGt4mR0q2XHbS2SQR2bL-1" target="hpbuT1dW0PDJMgFhYp0D-1">
          <mxGeometry relative="1" as="geometry">
            <mxPoint x="420" y="620" as="targetPoint" />
            <mxPoint x="430" y="300" as="sourcePoint" />
            <Array as="points">
              <mxPoint x="480" y="300" />
              <mxPoint x="480" y="620" />
              <mxPoint x="407" y="620" />
            </Array>
          </mxGeometry>
        </mxCell>
        <mxCell id="EGWSOkY1vcWyFsizza1H-2" value="5V&amp;nbsp;" style="text;strokeColor=none;align=center;fillColor=none;html=1;verticalAlign=middle;whiteSpace=wrap;rounded=0;fontSize=16;" vertex="1" parent="SGt4mR0q2XHbS2SQR2bL-1">
          <mxGeometry x="650" y="740" width="60" height="30" as="geometry" />
        </mxCell>
        <mxCell id="EGWSOkY1vcWyFsizza1H-3" value="24V" style="text;strokeColor=none;align=center;fillColor=none;html=1;verticalAlign=middle;whiteSpace=wrap;rounded=0;fontSize=16;" vertex="1" parent="SGt4mR0q2XHbS2SQR2bL-1">
          <mxGeometry x="452" y="260" width="60" height="30" as="geometry" />
        </mxCell>
      </root>
    </mxGraphModel>
  </diagram>
</mxfile>
